# xmcd CD database file
#
# Track frame offsets:
#	150
#	16035
#	32522
#	50142
#	68930
#	82442
#	95192
#	104802
#	121372
#	136607
#	151615
#	163395
#	176272
#	195945
#	209820
#	221145
#	234097
#	246837
#	263857
#
# Disc length: 3729 seconds
#
# Revision: 0
# Processed by: cddbd v1.5.1PL0 Copyright (c) Steve Scherf et al.
# Submitted via: NeoAudio 9.9.9
#
DISCID=120e8f13
DTITLE=Let's hear it for line dancin - Let's hear it for line dancin
DYEAR=1900
DGENRE=Country
TTITLE0=line dancin days
TTITLE1=goinçountry
TTITLE2=there you go
TTITLE3=E.J.bar
TTITLE4=country married rock'n'roll
TTITLE5=contry music hall of fame
TTITLE6=no honky tonks in heaven
TTITLE7=too easy
TTITLE8=good times cme around
TTITLE9=love my car
TTITLE10=love kept it's hold on my head
TTITLE11=l learnt a thing or two
TTITLE12=ain't life wonderful
TTITLE13=louisianna
TTITLE14=daddy's got his blue jeans on
TTITLE15=3 times loser
TTITLE16=situation vacant
TTITLE17=burnin fire
TTITLE18=let's hear it for the ladies
EXTD=
EXTT0=
EXTT1=
EXTT2=
EXTT3=
EXTT4=
EXTT5=
EXTT6=
EXTT7=
EXTT8=
EXTT9=
EXTT10=
EXTT11=
EXTT12=
EXTT13=
EXTT14=
EXTT15=
EXTT16=
EXTT17=
EXTT18=
PLAYORDER=
